<svg xmlns="http://www.w3.org/2000/svg" xmlns:xlink="http://www.w3.org/1999/xlink" width="157.96" height="175" viewBox="0 0 157.96 175"><defs><style>.a{fill:#58595b;}.b{fill:#fff;}.c{fill:#bcbec0;}.d{fill:#ec058c;}.e{filter:url(#a);}</style><filter id="a" x="0" y="0" width="157.96" height="175" filterUnits="userSpaceOnUse"><feOffset dx="5" dy="5" input="SourceAlpha"/><feGaussianBlur stdDeviation="5" result="b"/><feFlood flood-opacity="0.102"/><feComposite operator="in" in2="b"/><feComposite in="SourceGraphic"/></filter></defs><g transform="translate(1046.844 -3099.015)"><g class="e" transform="matrix(1, 0, 0, 1, -1046.84, 3099.01)"><path class="a" d="M-1036.844,3111.554v139.921a2.54,2.54,0,0,0,2.54,2.54h122.88a2.54,2.54,0,0,0,2.54-2.54V3111.554a2.54,2.54,0,0,0-2.54-2.539H-1034.3A2.54,2.54,0,0,0-1036.844,3111.554Z" transform="translate(1046.84 -3099.01)"/></g><rect class="b" width="8.999" height="8.999" transform="translate(-1030.695 3114.583)"/><rect class="b" width="32.227" height="8.999" transform="translate(-1016.723 3114.583)"/><rect class="b" width="124.59" height="124.537" rx="1.287" transform="translate(-1035.413 3127.818)"/><path class="c" d="M-920.584,3192.074h-1.322a.33.33,0,0,1-.34-.321.332.332,0,0,1,.322-.34h1.34a.332.332,0,0,1,.322.34.33.33,0,0,1-.322.321Zm-2.644,0h-1.322a.331.331,0,0,1-.34-.321.332.332,0,0,1,.322-.34h1.34a.331.331,0,0,1,.34.322.33.33,0,0,1-.321.339Zm-2.644,0h-1.322a.33.33,0,0,1-.34-.321.332.332,0,0,1,.322-.34h1.34a.331.331,0,0,1,.34.322.331.331,0,0,1-.322.339Zm-2.644,0h-1.322a.329.329,0,0,1-.34-.321.332.332,0,0,1,.321-.34h1.341a.332.332,0,0,1,.322.34.33.33,0,0,1-.322.321Zm-2.644,0h-1.322a.331.331,0,0,1-.322-.339.331.331,0,0,1,.322-.322h1.322a.331.331,0,0,1,.339.322.33.33,0,0,1-.321.339Zm-2.644,0h-1.322a.329.329,0,0,1-.34-.321.332.332,0,0,1,.321-.34h1.341a.33.33,0,0,1,.339.322.33.33,0,0,1-.321.339Zm-2.645,0h-1.322a.329.329,0,0,1-.339-.321.331.331,0,0,1,.321-.34h1.34a.331.331,0,0,1,.34.322.33.33,0,0,1-.321.339Zm-2.644,0h-1.322a.329.329,0,0,1-.34-.321.332.332,0,0,1,.321-.34h1.341a.33.33,0,0,1,.321.34A.328.328,0,0,1-939.093,3192.074Zm-2.644,0h-1.322a.329.329,0,0,1-.34-.321.332.332,0,0,1,.321-.34h1.341a.331.331,0,0,1,.34.322.331.331,0,0,1-.322.339Z"/><path class="c" d="M-944.319,3192.074h-1.322a.329.329,0,0,1-.34-.321.332.332,0,0,1,.322-.34h1.34a.33.33,0,0,1,.321.34.328.328,0,0,1-.321.321Zm-2.644,0h-1.322a.33.33,0,0,1-.34-.321.332.332,0,0,1,.322-.34h1.34a.331.331,0,0,1,.34.322.33.33,0,0,1-.321.339Zm-2.644,0h-1.322a.329.329,0,0,1-.34-.321.332.332,0,0,1,.321-.34h1.341a.331.331,0,0,1,.34.322.33.33,0,0,1-.322.339Zm-2.644,0h-1.322a.329.329,0,0,1-.34-.321.332.332,0,0,1,.321-.34h1.341a.33.33,0,0,1,.321.34.328.328,0,0,1-.321.321Zm-2.644,0h-1.322a.33.33,0,0,1-.322-.339.331.331,0,0,1,.322-.322h1.322a.33.33,0,0,1,.339.322.33.33,0,0,1-.321.339Zm-2.645,0h-1.322a.329.329,0,0,1-.339-.321.331.331,0,0,1,.321-.34h1.34a.331.331,0,0,1,.34.322.33.33,0,0,1-.321.339Zm-2.644,0h-1.322a.329.329,0,0,1-.339-.321.33.33,0,0,1,.321-.34h1.34a.331.331,0,0,1,.34.322.33.33,0,0,1-.321.339Zm-2.644,0h-1.322a.329.329,0,0,1-.34-.321.332.332,0,0,1,.321-.34h1.341a.331.331,0,0,1,.321.34A.329.329,0,0,1-962.828,3192.074Zm-2.644,0h-1.322a.329.329,0,0,1-.34-.321.332.332,0,0,1,.321-.34h1.341a.331.331,0,0,1,.34.322.33.33,0,0,1-.322.339Z"/><path class="c" d="M-968.179,3192.074H-969.5a.331.331,0,0,1-.34-.321.332.332,0,0,1,.322-.34h1.34a.332.332,0,0,1,.322.34.33.33,0,0,1-.322.321Zm-2.644,0h-1.322a.329.329,0,0,1-.339-.321.33.33,0,0,1,.321-.34h1.34a.331.331,0,0,1,.34.322.33.33,0,0,1-.321.339Zm-2.644,0h-1.322a.33.33,0,0,1-.34-.321.332.332,0,0,1,.322-.34h1.34a.331.331,0,0,1,.34.322.33.33,0,0,1-.321.339Zm-2.644,0h-1.322a.329.329,0,0,1-.34-.321.332.332,0,0,1,.321-.34h1.341a.332.332,0,0,1,.322.34.33.33,0,0,1-.322.321Zm-2.644,0h-1.322a.329.329,0,0,1-.321-.339.33.33,0,0,1,.321-.322h1.322a.33.33,0,0,1,.339.322.329.329,0,0,1-.321.339Zm-2.644,0h-1.322a.329.329,0,0,1-.34-.321.332.332,0,0,1,.321-.34h1.341a.33.33,0,0,1,.339.322.33.33,0,0,1-.321.339Zm-2.645,0h-1.322a.329.329,0,0,1-.339-.321.331.331,0,0,1,.321-.34h1.34a.331.331,0,0,1,.34.322.33.33,0,0,1-.321.339Zm-2.644,0h-1.322a.33.33,0,0,1-.34-.321.332.332,0,0,1,.322-.34h1.34a.33.33,0,0,1,.321.34A.328.328,0,0,1-986.688,3192.074Zm-2.644,0h-1.322a.329.329,0,0,1-.34-.321.332.332,0,0,1,.321-.34h1.341a.331.331,0,0,1,.34.322.33.33,0,0,1-.321.339Z"/><path class="c" d="M-992.08,3192.074H-993.4a.329.329,0,0,1-.34-.321.332.332,0,0,1,.321-.34h1.341a.331.331,0,0,1,.321.34.329.329,0,0,1-.321.321Zm-2.644,0h-1.322a.329.329,0,0,1-.34-.321.332.332,0,0,1,.321-.34h1.341a.332.332,0,0,1,.34.322.331.331,0,0,1-.322.339Zm-2.644,0h-1.322a.329.329,0,0,1-.34-.321.332.332,0,0,1,.321-.34h1.341a.33.33,0,0,1,.339.322.329.329,0,0,1-.321.339Zm-2.644,0h-1.323a.329.329,0,0,1-.339-.321.33.33,0,0,1,.321-.34h1.341a.331.331,0,0,1,.321.34.329.329,0,0,1-.321.321Zm-2.645,0h-1.322a.33.33,0,0,1-.321-.339.331.331,0,0,1,.321-.322h1.322a.331.331,0,0,1,.34.322.33.33,0,0,1-.321.339Zm-2.644,0h-1.322a.329.329,0,0,1-.339-.321.33.33,0,0,1,.321-.34h1.34a.331.331,0,0,1,.34.322.33.33,0,0,1-.321.339Zm-2.644,0h-1.322a.33.33,0,0,1-.34-.321.332.332,0,0,1,.322-.34h1.34a.331.331,0,0,1,.34.322.331.331,0,0,1-.322.339Zm-2.644,0h-1.322a.329.329,0,0,1-.34-.321.332.332,0,0,1,.321-.34h1.341a.332.332,0,0,1,.321.34A.329.329,0,0,1-1010.589,3192.074Zm-2.644,0h-1.323a.329.329,0,0,1-.339-.321.331.331,0,0,1,.321-.34h1.341a.331.331,0,0,1,.339.322.329.329,0,0,1-.321.339Z"/><path class="c" d="M-1016.148,3192.074h-1.322a.331.331,0,0,1-.34-.321.332.332,0,0,1,.322-.34h1.34a.332.332,0,0,1,.322.34.33.33,0,0,1-.322.321Zm-2.644,0h-1.322a.329.329,0,0,1-.339-.321.33.33,0,0,1,.321-.34h1.34a.331.331,0,0,1,.34.322.33.33,0,0,1-.321.339Zm-2.644,0h-1.322a.33.33,0,0,1-.34-.321.332.332,0,0,1,.322-.34h1.34a.331.331,0,0,1,.34.322.33.33,0,0,1-.322.339Zm-2.644,0h-1.322a.329.329,0,0,1-.34-.321.332.332,0,0,1,.321-.34h1.341a.332.332,0,0,1,.322.34.33.33,0,0,1-.322.321Z"/><path class="a" d="M-1023.309,3226.973a1.3,1.3,0,0,1-1.331-1.259,1.3,1.3,0,0,1,1.259-1.33h.072c7.048,0,8.746-16.214,10.248-30.517,1.551-14.79,2.892-27.562,9.764-27.562,7.568,0,9.127,10.544,10.634,20.745,1.056,7.128,2.25,15.209,5.587,15.209,3.672,0,4.743-5.3,5.857-12.786.95-6.369,1.846-12.384,6.31-12.384,4.542,0,5.21,7.7,5.979,16.609.683,7.88,1.533,17.686,5.362,17.686,3.6,0,5.171-15.106,6.31-26.134,1.75-16.891,3.089-27.244,8.348-27.244,5.787,0,7.157,10.106,8.609,20.8.849,6.253,2.131,15.7,4.4,15.7,2.175,0,3.431-10.3,4.264-17.115,1.5-12.329,2.929-23.979,9.275-23.979a1.3,1.3,0,0,1,1.331,1.259,1.3,1.3,0,0,1-1.259,1.33h-.072c-4.057,0-5.588,12.546-6.706,21.705-1.323,10.831-2.367,19.388-6.833,19.388-4.534,0-5.606-7.92-6.965-17.946-1.064-7.832-2.522-18.562-6.046-18.562-3.193,0-4.743,15-5.771,24.921-1.582,15.271-2.947,28.456-8.886,28.456-6.206,0-7.089-10.191-7.941-20.049-.52-6.012-1.232-14.246-3.4-14.246-2.232,0-3.037,5.406-3.747,10.178-1.049,7.027-2.235,14.991-8.42,14.991-5.572,0-6.823-8.461-8.148-17.42-1.284-8.687-2.739-18.534-8.073-18.534-4.542,0-5.948,13.412-7.188,25.242C-1012.178,3210.28-1013.931,3226.973-1023.309,3226.973Z"/><path class="d" d="M-1000.61,3167.6a2.687,2.687,0,0,1-2.688,2.687,2.688,2.688,0,0,1-2.688-2.687,2.687,2.687,0,0,1,2.688-2.688h0A2.687,2.687,0,0,1-1000.61,3167.6Z"/><path class="d" d="M-972.129,3177.956a2.687,2.687,0,0,1-2.687,2.688,2.688,2.688,0,0,1-2.689-2.687,2.687,2.687,0,0,1,2.687-2.688h0A2.688,2.688,0,0,1-972.129,3177.956Z"/><path class="d" d="M-946.236,3159.832a2.688,2.688,0,0,1-2.688,2.688,2.688,2.688,0,0,1-2.688-2.688,2.687,2.687,0,0,1,2.688-2.688h0A2.687,2.687,0,0,1-946.236,3159.832Z"/><path class="d" d="M-920.344,3154.653a2.687,2.687,0,0,1-2.687,2.688,2.687,2.687,0,0,1-2.689-2.687,2.688,2.688,0,0,1,2.687-2.688h0A2.688,2.688,0,0,1-920.344,3154.653Z"/></g></svg>