<svg xmlns="http://www.w3.org/2000/svg" xmlns:xlink="http://www.w3.org/1999/xlink" width="216.421" height="236.429" viewBox="0 0 216.421 236.429"><defs><style>.a{fill:#737475;}.b{fill:#fff;}.c,.e,.f{fill:#ec058c;}.d{fill:#bcbec0;}.e{opacity:0.75;}.e,.f{isolation:isolate;}.f{opacity:0.5;}.g{filter:url(#a);}</style><filter id="a" x="0" y="0" width="216.421" height="236.429" filterUnits="userSpaceOnUse"><feOffset dx="-5" dy="5" input="SourceAlpha"/><feGaussianBlur stdDeviation="5" result="b"/><feFlood flood-opacity="0.102"/><feComposite operator="in" in2="b"/><feComposite in="SourceGraphic"/></filter></defs><g transform="translate(645.806 -2991.952)"><g class="g" transform="matrix(1, 0, 0, 1, -645.81, 2991.95)"><path class="a" d="M-625.806,3005.834V3204.5a3.882,3.882,0,0,0,3.882,3.882h178.657a3.882,3.882,0,0,0,3.882-3.882V3005.834a3.882,3.882,0,0,0-3.882-3.882H-621.924A3.882,3.882,0,0,0-625.806,3005.834Z" transform="translate(645.81 -2991.95)"/></g><path class="b" d="M-622.279,3017.249H-442.8a1.414,1.414,0,0,1,1.414,1.414v186.055a1.414,1.414,0,0,1-1.414,1.414H-622.279a1.415,1.415,0,0,1-1.415-1.414V3018.663A1.415,1.415,0,0,1-622.279,3017.249Z"/><rect class="c" width="7.645" height="6.431" transform="translate(-508.642 3139.812)"/><rect class="d" width="24.24" height="6.431" transform="translate(-494.17 3139.812)"/><rect class="e" width="7.645" height="6.431" transform="translate(-508.642 3157.115)"/><rect class="d" width="24.24" height="6.431" transform="translate(-494.17 3157.115)"/><rect class="f" width="7.645" height="6.431" transform="translate(-508.642 3174.419)"/><rect class="d" width="24.24" height="6.431" transform="translate(-494.17 3174.419)"/><path class="c" d="M-481.713,3052.536l6.644-10.787a20.867,20.867,0,0,1,3.345,2.66,22.907,22.907,0,0,1,.525,32.392l-.007.008c-8.06,8.335-22.135,8.076-30.087,2.478l8.982-9.288c3.2,1.295,8.814,1.31,12.006-1.991a10.249,10.249,0,0,0-.208-14.492l-.022-.021A7.282,7.282,0,0,0-481.713,3052.536Z"/><path class="e" d="M-497.077,3065.717l-8.891,9.193c-6.346-7.257-6.577-15.6-3.221-23.469l10.852,6.489C-498.954,3060.655-498.983,3063.079-497.077,3065.717Z"/><path class="f" d="M-504.127,3044.967a23.016,23.016,0,0,1,24.432-5.6l-6.965,11.307a10.286,10.286,0,0,0-8.368,3.094,1.051,1.051,0,0,0-.181.223l-10.932-6.6A20.621,20.621,0,0,1-504.127,3044.967Z"/><rect class="f" width="8.447" height="28.58" transform="translate(-598.917 3154.711)"/><rect class="e" width="8.447" height="38.843" transform="translate(-584.998 3144.449)"/><rect class="c" width="8.447" height="74.868" transform="translate(-571.08 3108.425)"/><rect class="f" width="8.447" height="67.505" transform="translate(-557.365 3115.786)"/><rect class="e" width="8.447" height="89.854" transform="translate(-543.446 3093.438)"/><rect class="c" width="8.447" height="100.979" transform="translate(-529.528 3082.313)"/><rect class="d" width="7.202" height="3.234" transform="translate(-598.917 3143.026)"/><rect class="d" width="7.202" height="3.234" transform="translate(-584.376 3132.802)"/><rect class="d" width="7.202" height="3.234" transform="translate(-570.458 3096.982)"/><rect class="d" width="7.203" height="3.234" transform="translate(-556.742 3103.778)"/><rect class="d" width="7.202" height="3.234" transform="translate(-542.824 3080.696)"/><rect class="d" width="7.203" height="3.234" transform="translate(-528.906 3068.133)"/></g></svg>