<svg xmlns="http://www.w3.org/2000/svg" width="160.976" height="161.034" viewBox="0 0 160.976 161.034"><defs><style>.a{fill:#bcbec0;}</style></defs><path class="a" d="M-1038.119,3337.294q1.71-.382,3.384-.912a1.261,1.261,0,0,1,1.333.366l9.424,10.775a1.882,1.882,0,0,0,2.375.38l6.976-4.138a1.88,1.88,0,0,0,.807-2.265l-4.948-13.493a1.255,1.255,0,0,1,.315-1.337,41.641,41.641,0,0,0,4.586-5.233,1.253,1.253,0,0,1,1.289-.486l14.03,3.191a1.881,1.881,0,0,0,2.144-1.089l3.213-7.447a1.88,1.88,0,0,0-.678-2.307l-11.915-8a1.255,1.255,0,0,1-.53-1.273,41.314,41.314,0,0,0,.668-6.965,1.255,1.255,0,0,1,.757-1.146l13.168-5.64a1.88,1.88,0,0,0,1.1-2.142l-1.78-7.91a1.881,1.881,0,0,0-1.9-1.467l-14.316.535a1.255,1.255,0,0,1-1.174-.714,41.062,41.062,0,0,0-3.584-6.011,1.254,1.254,0,0,1-.065-1.378l7.348-12.319a1.882,1.882,0,0,0-.373-2.376l-6.09-5.356a1.88,1.88,0,0,0-2.4-.067l-11.313,8.882a1.254,1.254,0,0,1-1.372.112,41.592,41.592,0,0,0-6.387-2.767,1.255,1.255,0,0,1-.856-1.075l-1.3-14.31a1.88,1.88,0,0,0-1.7-1.7l-8.077-.755a1.881,1.881,0,0,0-1.984,1.359l-3.913,13.773a1.257,1.257,0,0,1-1.043.9,41.307,41.307,0,0,0-6.844,1.539,1.254,1.254,0,0,1-1.327-.364l-9.428-10.776a1.88,1.88,0,0,0-2.374-.379l-6.978,4.135a1.882,1.882,0,0,0-.807,2.266l4.948,13.492a1.256,1.256,0,0,1-.314,1.337,41.747,41.747,0,0,0-4.587,5.234,1.254,1.254,0,0,1-1.289.485l-14.027-3.191a1.881,1.881,0,0,0-2.144,1.088l-3.215,7.442a1.88,1.88,0,0,0,.678,2.308l11.914,7.992a1.254,1.254,0,0,1,.53,1.273,41.193,41.193,0,0,0-.666,6.964,1.254,1.254,0,0,1-.757,1.147l-13.171,5.64a1.88,1.88,0,0,0-1.094,2.141l1.776,7.913a1.881,1.881,0,0,0,1.906,1.468l15.137-.566a41.12,41.12,0,0,0,3.936,6.751,1.254,1.254,0,0,1,.065,1.378l-7.351,12.325a1.881,1.881,0,0,0,.373,2.375l6.09,5.358a1.88,1.88,0,0,0,2.4.067l11.316-8.886a1.255,1.255,0,0,1,1.373-.112,41.771,41.771,0,0,0,6.384,2.77,1.254,1.254,0,0,1,.855,1.074l1.3,14.312a1.881,1.881,0,0,0,1.7,1.7l8.074.755a1.88,1.88,0,0,0,1.984-1.359l3.914-13.77a1.258,1.258,0,0,1,1.048-.9Q-1039.839,3337.679-1038.119,3337.294Zm1.221-12.887a29.426,29.426,0,0,0,10.948-7.179.947.947,0,0,1,1.193-.152l5.186,3.281a.955.955,0,0,1,.216,1.429,36.865,36.865,0,0,1-15.558,10.482.955.955,0,0,1-1.237-.7l-1.354-6.065A.951.951,0,0,1-1036.9,3324.407Zm-30.862-19.175a22.228,22.228,0,0,1,12-29.054,22.228,22.228,0,0,1,29.054,12,22.228,22.228,0,0,1-12,29.054,22.212,22.212,0,0,1-7.353,1.669,22.244,22.244,0,0,1-21.7-13.665Zm52.933,7.916-5.053-3.2a.949.949,0,0,1-.351-1.2,29.409,29.409,0,0,0,2.54-13.464.949.949,0,0,1,.735-.98l5.728-1.286a.956.956,0,0,1,1.163.844,37.679,37.679,0,0,1-3.387,18.888A.956.956,0,0,1-1014.827,3313.148Zm-5.106-27.834a29.423,29.423,0,0,0-8.149-11.147.949.949,0,0,1-.2-1.233l3.2-5.052a.956.956,0,0,1,1.409-.234,37.722,37.722,0,0,1,11.238,15.69.955.955,0,0,1-.69,1.261l-5.724,1.285A.948.948,0,0,1-1019.933,3285.314Zm-16.974-16.323a29.38,29.38,0,0,0-13.236-1.72.944.944,0,0,1-1.025-.728l-1.361-6.054a.955.955,0,0,1,.808-1.159,36.846,36.846,0,0,1,18.821,2.709.955.955,0,0,1,.42,1.386l-3.287,5.192A.948.948,0,0,1-1036.907,3268.991Zm-23.084,1.023a29.456,29.456,0,0,0-9.951,7.73.946.946,0,0,1-1.236.2l-5.114-3.237a.953.953,0,0,1-.251-1.385,36.98,36.98,0,0,1,14.388-11.183.953.953,0,0,1,1.3.671l1.386,6.14A.944.944,0,0,1-1059.991,3270.014Zm-15.057,16.6a29.409,29.409,0,0,0-1.711,11.878.948.948,0,0,1-.733.992l-5.733,1.286a.957.957,0,0,1-1.163-.836,37.667,37.667,0,0,1,2.479-17.222.956.956,0,0,1,1.4-.444l5.086,3.217A.946.946,0,0,1-1075.048,3286.61Zm.656,21.82a29.388,29.388,0,0,0,6.817,9.748.946.946,0,0,1,.158,1.2l-3.211,5.073a.956.956,0,0,1-1.441.207,37.674,37.674,0,0,1-9.834-14.222.955.955,0,0,1,.687-1.271l5.747-1.29A.947.947,0,0,1-1074.392,3308.43Zm15.343,15.386a29.4,29.4,0,0,0,12.1,2.458.945.945,0,0,1,.941.734l1.378,6.132a.952.952,0,0,1-.877,1.163,36.919,36.919,0,0,1-17.6-3.627.953.953,0,0,1-.381-1.368l3.259-5.139A.944.944,0,0,1-1059.049,3323.816Z" transform="translate(3094.741 -1616.32) rotate(43)"/></svg>