<svg xmlns="http://www.w3.org/2000/svg" width="140.834" height="154.603" viewBox="0 0 140.834 154.603"><defs><style>.a{fill:#58595b;}.b{fill:#bcbec0;}.c{fill:#989a9b;}</style></defs><g transform="translate(545.866 -3004.011)"><path class="a" d="M-415.307,3158.065l-32.671-36.833a1.731,1.731,0,0,1,.083-2.447h0l7.278-6.8a1.733,1.733,0,0,1,2.447.083h0L-405.5,3148.9a1.731,1.731,0,0,1-.083,2.447h0l-7.278,6.8A1.733,1.733,0,0,1-415.307,3158.065Z"/><path class="b" d="M-446.822,3117.83l-12.128-12.872,5.286-4.94,12.128,12.872Z"/><path class="c" d="M-488.007,3004.011c-31.938,0-57.859,25.569-57.859,57.062,0,31.524,25.921,57.062,57.859,57.062,31.969,0,57.89-25.538,57.89-57.062C-430.119,3029.581-456.038,3004.011-488.007,3004.011Zm0,108.012c-28.52,0-51.65-22.8-51.65-50.952,0-28.117,23.13-50.916,51.65-50.916,28.55,0,51.689,22.8,51.689,50.916,0,28.153-23.133,50.952-51.689,50.952Z"/></g></svg>