<svg xmlns="http://www.w3.org/2000/svg" width="645.913" height="376.649" viewBox="0 0 645.913 376.649"><defs><style>.a{fill:#bcbec0;}.b{fill:#fff;}.c{fill:#838587;}.d{fill:#58595b;}</style></defs><g transform="translate(1058.516 -3057.437)"><path class="a" d="M-965.259,3356.146h458.318l94.338,54.4h-645.913Z"/><path class="b" d="M-524.366,3367.972l47.068,27.572H-988.9l47.125-27.572Z"/><path class="c" d="M-1058.516,3416.406H-412.6v7.125a10.554,10.554,0,0,1-10.554,10.555h-624.805a10.554,10.554,0,0,1-10.554-10.555Z"/><rect class="b" width="645.913" height="6.528" transform="translate(-1058.516 3410.542)"/><rect class="a" width="479.958" height="3.721" transform="translate(-970.114 3365.658)"/><path class="a" d="M-490.156,3384.262H-975.691l5.672-3.72h479.863Z"/><rect class="d" width="466.598" height="298.596" rx="2.973" transform="translate(-968.858 3057.437)"/><rect class="a" width="442.792" height="274.791" rx="1.794" transform="translate(-956.955 3069.34)"/><rect class="b" width="435.311" height="267.237" rx="2.023" transform="translate(-953.215 3073.116)"/></g></svg>