<svg xmlns="http://www.w3.org/2000/svg" width="78.823" height="78.381" viewBox="0 0 78.823 78.381"><defs><style>.a{fill:#ec058c;}</style></defs><path class="a" d="M-1035.557,3236.118l-2.832-7.714a.816.816,0,0,1,.2-.866,23.519,23.519,0,0,0,2.494-2.844.811.811,0,0,1,.833-.314l8.021,1.824a.822.822,0,0,0,.937-.475l1.964-4.553a.821.821,0,0,0-.3-1.008l-6.814-4.572a.813.813,0,0,1-.343-.824,23.162,23.162,0,0,0,.364-3.781.812.812,0,0,1,.49-.742l7.531-3.222a.821.821,0,0,0,.478-.935l-1.088-4.84a.822.822,0,0,0-.832-.641l-8.187.307a.813.813,0,0,1-.76-.461,23.306,23.306,0,0,0-1.947-3.266.813.813,0,0,1-.041-.891l4.2-7.044a.821.821,0,0,0-.163-1.037l-3.725-3.277a.821.821,0,0,0-1.05-.03l-6.469,5.08a.811.811,0,0,1-.888.073,23.434,23.434,0,0,0-3.47-1.5.813.813,0,0,1-.553-.7l-.742-8.185a.823.823,0,0,0-.742-.744l-4.94-.461a.822.822,0,0,0-.867.594l-2.238,7.877a.812.812,0,0,1-.675.58q-.942.132-1.871.342t-1.844.493a.812.812,0,0,1-.858-.236l-5.392-6.164a.821.821,0,0,0-1.038-.165l-4.265,2.532a.821.821,0,0,0-.352.989l2.829,7.715a.814.814,0,0,1-.2.865,23.561,23.561,0,0,0-2.491,2.842.812.812,0,0,1-.834.314l-8.023-1.825a.823.823,0,0,0-.937.476l-1.965,4.554a.822.822,0,0,0,.3,1.007l6.814,4.573a.811.811,0,0,1,.343.823,23.084,23.084,0,0,0-.361,3.784.813.813,0,0,1-.49.742l-7.531,3.222a.823.823,0,0,0-.479.935l1.086,4.84a.821.821,0,0,0,.833.641l8.185-.306a.811.811,0,0,1,.76.461,23.24,23.24,0,0,0,1.944,3.263.811.811,0,0,1,.042.891l-4.2,7.045a.819.819,0,0,0,.163,1.037l3.723,3.277a.821.821,0,0,0,1.05.03l6.471-5.082a.814.814,0,0,1,.888-.073,23.458,23.458,0,0,0,3.468,1.5.813.813,0,0,1,.553.7l.744,8.185a.822.822,0,0,0,.742.743l4.94.463a.822.822,0,0,0,.867-.594l2.239-7.878a.813.813,0,0,1,.671-.582c.625-.089,1.25-.2,1.879-.339s1.234-.306,1.841-.495a.812.812,0,0,1,.858.236l5.392,6.164a.821.821,0,0,0,1.037.166l4.268-2.529A.822.822,0,0,0-1035.557,3236.118Zm-32.583-22.328a14.041,14.041,0,0,1,10.625-16.775,14.04,14.04,0,0,1,16.775,10.625,14.042,14.042,0,0,1-10.622,16.775A14.056,14.056,0,0,1-1068.14,3213.79Z" transform="matrix(0.259, -0.966, 0.966, 0.259, -2788.995, -1810.315)"/></svg>