<svg xmlns="http://www.w3.org/2000/svg" width="282.552" height="103.087" viewBox="0 0 282.552 103.087"><defs><style>.a{fill:#ec058c;}.b{fill:#58595b;}</style></defs><g transform="translate(4004.403 -3850.974)"><path class="a" d="M-3949.42,3898.382a29,29,0,0,1,1.979,2.924,15.336,15.336,0,0,1,7-1.7,15.328,15.328,0,0,1,12.293,6.2,39.631,39.631,0,0,0,3.038-15.188,39.648,39.648,0,0,0-39.649-39.649h0a39.648,39.648,0,0,0-39.649,39.649,39.649,39.649,0,0,0,39.649,39.649,39.648,39.648,0,0,0,15.157-3.048,15.33,15.33,0,0,1-6.155-11.886c-2.977.249-5.986.382-9,.4a110.2,110.2,0,0,1-21.763-2.152,34.3,34.3,0,0,1,6.58-15.415,19.31,19.31,0,0,1,15.128-7.228h0A19.353,19.353,0,0,1-3949.42,3898.382Zm-15.334-32.87c6.113,0,11.069,5.225,11.07,11.671s-4.956,11.673-11.069,11.673h0c-6.113,0-11.069-5.226-11.069-11.673S-3970.867,3865.512-3964.754,3865.512Z"/><path class="a" d="M-3991.187,3944.007l-1.633,3.309-3.653.531,2.643,2.577-.624,3.637,3.267-1.717,3.267,1.717-.623-3.637,2.643-2.577-3.653-.531Zm13.217,0-1.634,3.309-3.653.531,2.643,2.577-.623,3.637,3.267-1.717,3.267,1.717-.624-3.637,2.643-2.577-3.653-.531Zm13.216,0-1.633,3.309-3.653.531,2.643,2.577-.624,3.637,3.267-1.717,3.267,1.717-.624-3.637,2.644-2.577-3.654-.531Zm13.216,0-1.633,3.309-3.653.531,2.643,2.577-.624,3.637,3.267-1.717,3.267,1.717-.623-3.637,2.643-2.577-3.653-.531Zm13.217,0-1.634,3.309-3.653.531,2.644,2.577-.624,3.637,3.267-1.717,3.267,1.717-.624-3.637,2.643-2.577-3.653-.531Z"/><path class="b" d="M-3940.436,3901.724a13.217,13.217,0,0,0-13.216,13.217h0a13.216,13.216,0,0,0,13.216,13.216h0a13.216,13.216,0,0,0,13.216-13.216h0a13.217,13.217,0,0,0-13.216-13.217Zm6.542,7.221a1.318,1.318,0,0,1,.935.389,1.32,1.32,0,0,1,0,1.869l-9.346,9.345a1.319,1.319,0,0,1-1.869,0l-3.738-3.738a1.319,1.319,0,0,1,0-1.869,1.319,1.319,0,0,1,1.869,0l2.8,2.8,8.411-8.411a1.319,1.319,0,0,1,.935-.389Z"/><path class="a" d="M-3847.793,3898.382a29,29,0,0,1,1.979,2.924,15.333,15.333,0,0,1,7-1.7,15.33,15.33,0,0,1,12.293,6.2,39.626,39.626,0,0,0,3.038-15.188,39.649,39.649,0,0,0-39.649-39.649h0a39.648,39.648,0,0,0-39.649,39.649,39.649,39.649,0,0,0,39.649,39.649,39.652,39.652,0,0,0,15.157-3.048,15.335,15.335,0,0,1-6.156-11.886c-2.976.249-5.985.382-9,.4a110.193,110.193,0,0,1-21.763-2.152,34.3,34.3,0,0,1,6.58-15.415,19.31,19.31,0,0,1,15.128-7.228h0A19.352,19.352,0,0,1-3847.793,3898.382Zm-15.334-32.87c6.113,0,11.069,5.225,11.07,11.671s-4.956,11.673-11.069,11.673h0c-6.114,0-11.069-5.226-11.069-11.673S-3869.24,3865.512-3863.127,3865.512Z"/><path class="a" d="M-3889.56,3944.007l-1.633,3.309-3.653.531,2.643,2.577-.624,3.637,3.267-1.717,3.267,1.717-.624-3.637,2.644-2.577-3.653-.531Zm13.217,0-1.634,3.309-3.653.531,2.643,2.577-.623,3.637,3.266-1.717,3.267,1.717-.623-3.637,2.643-2.577-3.653-.531Zm13.216,0-1.634,3.309-3.653.531,2.644,2.577-.624,3.637,3.267-1.717,3.267,1.717-.624-3.637,2.643-2.577-3.653-.531Zm13.216,0-1.633,3.309-3.653.531,2.643,2.577-.624,3.637,3.267-1.717,3.267,1.717-.623-3.637,2.643-2.577-3.653-.531Zm13.217,0-1.634,3.309-3.653.531,2.643,2.577-.623,3.637,3.267-1.717,3.266,1.717-.623-3.637,2.643-2.577-3.653-.531Z"/><path class="b" d="M-3838.809,3901.724a13.217,13.217,0,0,0-13.216,13.217h0a13.216,13.216,0,0,0,13.216,13.216h0a13.216,13.216,0,0,0,13.216-13.216h0a13.217,13.217,0,0,0-13.216-13.217Zm6.542,7.221a1.316,1.316,0,0,1,.934.389,1.318,1.318,0,0,1,0,1.869l-9.345,9.345a1.319,1.319,0,0,1-1.869,0l-3.739-3.738a1.32,1.32,0,0,1,0-1.869,1.32,1.32,0,0,1,1.87,0l2.8,2.8,8.411-8.411a1.318,1.318,0,0,1,.935-.389Z"/><path class="a" d="M-3746.166,3898.382a29.163,29.163,0,0,1,1.979,2.924,15.334,15.334,0,0,1,7.005-1.7,15.33,15.33,0,0,1,12.293,6.2,39.649,39.649,0,0,0,3.038-15.188,39.649,39.649,0,0,0-39.649-39.649h0a39.648,39.648,0,0,0-39.649,39.649,39.649,39.649,0,0,0,39.649,39.649,39.652,39.652,0,0,0,15.157-3.048,15.335,15.335,0,0,1-6.156-11.886c-2.976.249-5.985.382-9,.4a110.185,110.185,0,0,1-21.763-2.152,34.3,34.3,0,0,1,6.58-15.415,19.309,19.309,0,0,1,15.127-7.228h0A19.353,19.353,0,0,1-3746.166,3898.382Zm-15.334-32.87c6.113,0,11.069,5.225,11.069,11.671s-4.955,11.673-11.069,11.673h0c-6.114,0-11.069-5.226-11.069-11.673S-3767.613,3865.512-3761.5,3865.512Z"/><path class="a" d="M-3787.933,3944.007l-1.634,3.309-3.653.531,2.644,2.577-.624,3.637,3.267-1.717,3.267,1.717-.624-3.637,2.644-2.577-3.654-.531Zm13.216,0-1.633,3.309-3.653.531,2.643,2.577-.624,3.637,3.267-1.717,3.267,1.717-.623-3.637,2.643-2.577-3.653-.531Zm13.217,0-1.634,3.309-3.653.531,2.643,2.577-.623,3.637,3.267-1.717,3.267,1.717-.624-3.637,2.643-2.577-3.653-.531Zm13.216,0-1.633,3.309-3.653.531,2.643,2.577-.624,3.637,3.267-1.717,3.267,1.717-.624-3.637,2.644-2.577-3.653-.531Zm13.216,0-1.633,3.309-3.653.531,2.643,2.577-.623,3.637,3.266-1.717,3.267,1.717-.623-3.637,2.643-2.577-3.653-.531Z"/><path class="b" d="M-3737.182,3901.724a13.218,13.218,0,0,0-13.217,13.217h0a13.217,13.217,0,0,0,13.217,13.216h0a13.216,13.216,0,0,0,13.216-13.216h0a13.217,13.217,0,0,0-13.216-13.217Zm6.541,7.221a1.318,1.318,0,0,1,.935.389,1.318,1.318,0,0,1,0,1.869l-9.345,9.345a1.318,1.318,0,0,1-1.869,0l-3.739-3.738a1.32,1.32,0,0,1,0-1.869,1.32,1.32,0,0,1,1.87,0l2.8,2.8,8.411-8.411a1.318,1.318,0,0,1,.934-.389Z"/></g></svg>