<svg xmlns="http://www.w3.org/2000/svg" width="384.178" height="103.087" viewBox="0 0 384.178 103.087"><defs><style>.a{fill:#ec058c;}.b{fill:#58595b;}</style></defs><g transform="translate(4055.216 -3719.711)"><path class="a" d="M-4000.233,3767.119a29.194,29.194,0,0,1,1.979,2.924,15.333,15.333,0,0,1,7-1.7,15.332,15.332,0,0,1,12.293,6.2,39.673,39.673,0,0,0,3.038-15.188,39.649,39.649,0,0,0-39.649-39.649h0a39.648,39.648,0,0,0-39.649,39.649,39.649,39.649,0,0,0,39.649,39.649,39.652,39.652,0,0,0,15.157-3.048,15.333,15.333,0,0,1-6.156-11.886c-2.976.249-5.985.382-9,.4a110.219,110.219,0,0,1-21.763-2.152,34.287,34.287,0,0,1,6.58-15.415,19.309,19.309,0,0,1,15.127-7.228h0A19.353,19.353,0,0,1-4000.233,3767.119Zm-15.334-32.87c6.113,0,11.069,5.225,11.069,11.671s-4.955,11.673-11.069,11.673h0c-6.114,0-11.069-5.226-11.069-11.673S-4021.68,3734.249-4015.567,3734.249Z"/><path class="a" d="M-4042,3812.743l-1.634,3.31-3.653.53,2.644,2.578-.624,3.637,3.267-1.717,3.267,1.717-.624-3.637,2.643-2.578-3.653-.53Zm13.216,0-1.633,3.31-3.653.53,2.643,2.578-.624,3.637,3.267-1.717,3.267,1.717-.624-3.637,2.644-2.578-3.653-.53Zm13.217,0-1.634,3.31-3.653.53,2.643,2.578-.623,3.637,3.267-1.717,3.266,1.717-.623-3.637,2.643-2.578-3.653-.53Zm13.216,0-1.634,3.31-3.653.53,2.644,2.578-.624,3.637,3.267-1.717,3.267,1.717-.624-3.637,2.644-2.578-3.654-.53Zm13.216,0-1.633,3.31-3.653.53,2.643,2.578-.624,3.637,3.267-1.717,3.267,1.717-.623-3.637,2.643-2.578-3.653-.53Z"/><path class="b" d="M-3991.249,3770.461a13.218,13.218,0,0,0-13.217,13.217h0a13.217,13.217,0,0,0,13.217,13.216h0a13.216,13.216,0,0,0,13.216-13.216h0a13.217,13.217,0,0,0-13.216-13.217Zm6.541,7.221a1.319,1.319,0,0,1,.935.389,1.318,1.318,0,0,1,0,1.869l-9.345,9.345a1.319,1.319,0,0,1-1.87,0l-3.738-3.738a1.319,1.319,0,0,1,0-1.869,1.319,1.319,0,0,1,1.87,0l2.8,2.8,8.411-8.411a1.317,1.317,0,0,1,.934-.389Z"/><path class="a" d="M-3898.607,3767.119a29.037,29.037,0,0,1,1.98,2.924,15.333,15.333,0,0,1,7-1.7,15.332,15.332,0,0,1,12.293,6.2,39.644,39.644,0,0,0,3.037-15.188,39.648,39.648,0,0,0-39.649-39.649h0a39.649,39.649,0,0,0-39.649,39.649,39.65,39.65,0,0,0,39.649,39.649,39.657,39.657,0,0,0,15.158-3.048,15.334,15.334,0,0,1-6.156-11.886c-2.976.249-5.986.382-9,.4a110.212,110.212,0,0,1-21.762-2.152,34.287,34.287,0,0,1,6.58-15.415,19.308,19.308,0,0,1,15.127-7.228h0A19.351,19.351,0,0,1-3898.607,3767.119Zm-15.334-32.87c6.114,0,11.07,5.225,11.07,11.671s-4.955,11.673-11.069,11.673h0c-6.114,0-11.07-5.226-11.069-11.673S-3920.054,3734.249-3913.941,3734.249Z"/><path class="a" d="M-3940.373,3812.743l-1.634,3.31-3.653.53,2.643,2.578-.623,3.637,3.267-1.717,3.267,1.717-.624-3.637,2.643-2.578-3.653-.53Zm13.216,0-1.633,3.31-3.654.53,2.644,2.578-.624,3.637,3.267-1.717,3.267,1.717-.624-3.637,2.644-2.578-3.653-.53Zm13.216,0-1.633,3.31-3.653.53,2.643,2.578-.623,3.637,3.266-1.717,3.267,1.717-.623-3.637,2.643-2.578-3.653-.53Zm13.217,0-1.634,3.31-3.653.53,2.644,2.578-.624,3.637,3.267-1.717,3.267,1.717-.624-3.637,2.643-2.578-3.653-.53Zm13.216,0-1.633,3.31-3.653.53,2.643,2.578-.624,3.637,3.267-1.717,3.267,1.717-.624-3.637,2.644-2.578-3.653-.53Z"/><path class="b" d="M-3889.622,3770.461a13.217,13.217,0,0,0-13.217,13.217h0a13.216,13.216,0,0,0,13.217,13.216h0a13.216,13.216,0,0,0,13.216-13.216h0a13.217,13.217,0,0,0-13.216-13.217Zm6.541,7.221a1.319,1.319,0,0,1,.935.389,1.318,1.318,0,0,1,0,1.869l-9.345,9.345a1.319,1.319,0,0,1-1.87,0l-3.738-3.738a1.319,1.319,0,0,1,0-1.869,1.318,1.318,0,0,1,1.869,0l2.8,2.8,8.411-8.411a1.316,1.316,0,0,1,.934-.389Z"/><path class="a" d="M-3796.98,3767.119a29.2,29.2,0,0,1,1.98,2.924,15.333,15.333,0,0,1,7-1.7,15.333,15.333,0,0,1,12.294,6.2,39.649,39.649,0,0,0,3.037-15.188,39.648,39.648,0,0,0-39.649-39.649h0a39.649,39.649,0,0,0-39.649,39.649,39.65,39.65,0,0,0,39.649,39.649,39.657,39.657,0,0,0,15.158-3.048,15.332,15.332,0,0,1-6.156-11.886c-2.976.249-5.986.382-9,.4a110.212,110.212,0,0,1-21.762-2.152,34.286,34.286,0,0,1,6.579-15.415,19.311,19.311,0,0,1,15.128-7.228h0A19.35,19.35,0,0,1-3796.98,3767.119Zm-15.334-32.87c6.114,0,11.07,5.225,11.07,11.671s-4.956,11.673-11.069,11.673h0c-6.113,0-11.069-5.226-11.068-11.673S-3818.427,3734.249-3812.314,3734.249Z"/><path class="a" d="M-3838.746,3812.743l-1.634,3.31-3.653.53,2.643,2.578-.623,3.637,3.267-1.717,3.267,1.717-.624-3.637,2.643-2.578-3.653-.53Zm13.216,0-1.634,3.31-3.653.53,2.644,2.578-.624,3.637,3.267-1.717,3.267,1.717-.624-3.637,2.643-2.578-3.653-.53Zm13.216,0-1.633,3.31-3.653.53,2.643,2.578-.624,3.637,3.267-1.717,3.267,1.717-.623-3.637,2.643-2.578-3.653-.53Zm13.217,0-1.634,3.31-3.653.53,2.643,2.578-.623,3.637,3.267-1.717,3.267,1.717-.624-3.637,2.643-2.578-3.653-.53Zm13.216,0-1.633,3.31-3.654.53,2.644,2.578-.624,3.637,3.267-1.717,3.267,1.717-.624-3.637,2.644-2.578-3.654-.53Z"/><path class="b" d="M-3788,3770.461a13.217,13.217,0,0,0-13.216,13.217h0A13.216,13.216,0,0,0-3788,3796.894h0a13.216,13.216,0,0,0,13.217-13.216h0A13.217,13.217,0,0,0-3788,3770.461Zm6.542,7.221a1.319,1.319,0,0,1,.935.389,1.318,1.318,0,0,1,0,1.869l-9.345,9.345a1.319,1.319,0,0,1-1.87,0l-3.738-3.738a1.318,1.318,0,0,1,0-1.869,1.318,1.318,0,0,1,1.869,0l2.8,2.8,8.411-8.411a1.315,1.315,0,0,1,.934-.389Z"/><path class="a" d="M-3695.353,3767.119a29.16,29.16,0,0,1,1.98,2.924,15.33,15.33,0,0,1,7-1.7,15.329,15.329,0,0,1,12.293,6.2,39.631,39.631,0,0,0,3.038-15.188,39.648,39.648,0,0,0-39.649-39.649h0a39.649,39.649,0,0,0-39.649,39.649,39.65,39.65,0,0,0,39.649,39.649,39.656,39.656,0,0,0,15.158-3.048,15.329,15.329,0,0,1-6.156-11.886c-2.977.249-5.986.382-9,.4a110.212,110.212,0,0,1-21.762-2.152,34.289,34.289,0,0,1,6.579-15.415,19.31,19.31,0,0,1,15.128-7.228h0A19.35,19.35,0,0,1-3695.353,3767.119Zm-15.334-32.87c6.113,0,11.07,5.225,11.07,11.671s-4.956,11.673-11.069,11.673h0c-6.113,0-11.069-5.226-11.069-11.673S-3716.8,3734.249-3710.687,3734.249Z"/><path class="a" d="M-3737.12,3812.743l-1.633,3.31-3.653.53,2.643,2.578-.624,3.637,3.267-1.717,3.267,1.717-.623-3.637,2.643-2.578-3.653-.53Zm13.217,0-1.634,3.31-3.653.53,2.643,2.578-.623,3.637,3.267-1.717,3.267,1.717-.624-3.637,2.643-2.578-3.653-.53Zm13.216,0-1.633,3.31-3.653.53,2.643,2.578-.624,3.637,3.267-1.717,3.267,1.717-.624-3.637,2.644-2.578-3.653-.53Zm13.216,0-1.633,3.31-3.653.53,2.643,2.578-.623,3.637,3.266-1.717,3.267,1.717-.623-3.637,2.643-2.578-3.653-.53Zm13.217,0-1.634,3.31-3.653.53,2.644,2.578-.624,3.637,3.267-1.717,3.267,1.717-.624-3.637,2.643-2.578-3.653-.53Z"/><path class="b" d="M-3686.369,3770.461a13.217,13.217,0,0,0-13.216,13.217h0a13.216,13.216,0,0,0,13.216,13.216h0a13.217,13.217,0,0,0,13.217-13.216h0a13.218,13.218,0,0,0-13.217-13.217Zm6.542,7.221a1.318,1.318,0,0,1,.935.389,1.32,1.32,0,0,1,0,1.869l-9.346,9.345a1.318,1.318,0,0,1-1.869,0l-3.738-3.738a1.318,1.318,0,0,1,0-1.869,1.318,1.318,0,0,1,1.869,0l2.8,2.8,8.411-8.411a1.319,1.319,0,0,1,.935-.389Z"/></g></svg>