<svg xmlns="http://www.w3.org/2000/svg" xmlns:xlink="http://www.w3.org/1999/xlink" width="88" height="88" viewBox="0 0 88 88"><defs><style>.a,.b{fill:#fff;}.b,.d{stroke:#bcbec0;stroke-width:3px;}.b,.c{stroke-miterlimit:10;}.c,.d{fill:none;}.c{stroke:#58595b;stroke-linecap:round;stroke-width:0.5px;opacity:0.359;isolation:isolate;}.e{filter:url(#a);}</style><filter id="a" x="0" y="0" width="88" height="88" filterUnits="userSpaceOnUse"><feOffset dy="3" input="SourceAlpha"/><feGaussianBlur stdDeviation="3" result="b"/><feFlood flood-opacity="0.161"/><feComposite operator="in" in2="b"/><feComposite in="SourceGraphic"/></filter></defs><g transform="translate(4072.735 -3943.422)"><g class="e" transform="matrix(1, 0, 0, 1, -4072.73, 3943.42)"><circle class="a" cx="35" cy="35" r="35" transform="translate(9 6)"/></g><path class="a" d="M-4007.543,3978.816l-.042.046a1.435,1.435,0,0,0-.046-2.03,1.384,1.384,0,0,0-.108-.094l-20.445-17.341a2.147,2.147,0,0,0-2.678,0l-20.445,17.341a1.435,1.435,0,0,0-.247,2.015c.03.037.061.074.094.108-.013-.015-.029-.03-.042-.045-.1-.118-.317-.063-.317.083v21.979a3.509,3.509,0,0,0,3.746,3.176h37.1a3.508,3.508,0,0,0,3.745-3.176V3978.9C-4007.226,3978.753-4007.444,3978.7-4007.543,3978.816Zm-.077.084a1.324,1.324,0,0,1-.119.106l-13.663,11.59,13.663-11.59a1.055,1.055,0,0,0,.118-.106Zm-6.441-.948c-.041-.036-.081-.073-.117-.106.035.037.075.074.116.113Z"/><path class="b" d="M-4030.132,3996.162l-20.2-16.962a1.4,1.4,0,0,1-.249-1.97,1.431,1.431,0,0,1,.249-.249l20.206-16.962a2.139,2.139,0,0,1,2.648,0l20.2,16.962a1.405,1.405,0,0,1,.249,1.971,1.392,1.392,0,0,1-.249.248l-20.2,16.962A2.145,2.145,0,0,1-4030.132,3996.162Z"/><rect class="a" width="35.008" height="38.582" rx="5.316" transform="translate(-4045.688 3961.663)"/><line class="c" x2="25.47" transform="translate(-4041.186 3976.917)"/><line class="c" x2="25.47" transform="translate(-4041.186 3975.411)"/><line class="c" x2="25.47" transform="translate(-4041.186 3973.906)"/><line class="c" x2="25.47" transform="translate(-4041.186 3972.4)"/><line class="c" x2="25.47" transform="translate(-4041.186 3970.894)"/><line class="c" x2="25.299" transform="translate(-4041.186 3987.219)"/><line class="c" x2="25.299" transform="translate(-4041.186 3988.636)"/><line class="c" x2="25.299" transform="translate(-4041.186 3985.801)"/><line class="c" x2="25.299" transform="translate(-4041.186 3981.357)"/><line class="c" x2="25.299" transform="translate(-4041.186 3982.774)"/><line class="c" x2="25.299" transform="translate(-4041.186 3979.94)"/><path class="a" d="M-4007.277,3979.2l-19.631,16.484a3.065,3.065,0,0,1-3.8,0l-19.631-16.484h0c-.186-.157-.506-.046-.506.176v21.216a3.454,3.454,0,0,0,3.7,3.108h36.665a3.456,3.456,0,0,0,3.7-3.108v-21.216c0-.222-.317-.333-.506-.176Z"/><path class="d" d="M-4007.277,3979.2l-20.206,16.963a1.934,1.934,0,0,1-2.5,0l-20.354-16.963a1.63,1.63,0,0,1-.193-.19c-.1-.115-.317-.061-.317.081v21.274c0,1.834,1.788,3.335,3.972,3.335h36.129c2.184,0,3.972-1.5,3.972-3.335v-21.274c0-.142-.211-.2-.317-.081A1.647,1.647,0,0,1-4007.277,3979.2Z"/></g></svg>