<svg xmlns="http://www.w3.org/2000/svg" xmlns:xlink="http://www.w3.org/1999/xlink" width="128" height="128" viewBox="0 0 128 128"><defs><style>.a{fill:#fff;}.b,.d,.e{fill:#ec058c;}.c{fill:#bcbec0;}.d{opacity:0.75;}.d,.e{isolation:isolate;}.e{opacity:0.5;}.f{filter:url(#a);}</style><filter id="a" x="0" y="0" width="128" height="128" filterUnits="userSpaceOnUse"><feOffset dy="3" input="SourceAlpha"/><feGaussianBlur stdDeviation="3" result="b"/><feFlood flood-opacity="0.161"/><feComposite operator="in" in2="b"/><feComposite in="SourceGraphic"/></filter></defs><g transform="translate(4178.907 -3811.345)"><g class="f" transform="matrix(1, 0, 0, 1, -4178.91, 3811.35)"><circle class="a" cx="55" cy="55" r="55" transform="translate(9 6)"/></g><rect class="b" width="3.692" height="3.107" transform="translate(-4103.255 3870.459)"/><rect class="c" width="11.707" height="3.107" transform="translate(-4096.265 3870.459)"/><rect class="d" width="3.692" height="3.107" transform="translate(-4103.255 3878.817)"/><rect class="c" width="11.707" height="3.107" transform="translate(-4096.265 3878.817)"/><rect class="e" width="3.692" height="3.107" transform="translate(-4103.255 3887.174)"/><rect class="c" width="11.707" height="3.107" transform="translate(-4096.265 3887.174)"/><rect class="e" width="4.08" height="13.804" transform="translate(-4146.857 3877.656)"/><rect class="d" width="4.08" height="18.76" transform="translate(-4140.135 3872.7)"/><rect class="b" width="4.08" height="36.16" transform="translate(-4133.414 3855.3)"/><rect class="e" width="4.08" height="32.604" transform="translate(-4126.788 3858.856)"/><rect class="d" width="4.08" height="43.4" transform="translate(-4120.065 3848.06)"/><rect class="b" width="4.08" height="48.773" transform="translate(-4113.344 3842.687)"/><rect class="c" width="3.479" height="1.561" transform="translate(-4146.857 3872.013)"/><rect class="c" width="3.479" height="1.561" transform="translate(-4139.834 3867.074)"/><rect class="c" width="3.479" height="1.561" transform="translate(-4133.112 3849.773)"/><rect class="c" width="3.479" height="1.561" transform="translate(-4126.489 3853.055)"/><rect class="c" width="3.479" height="1.561" transform="translate(-4119.765 3841.907)"/><rect class="c" width="3.479" height="1.561" transform="translate(-4113.042 3835.839)"/></g></svg>