<svg xmlns="http://www.w3.org/2000/svg" xmlns:xlink="http://www.w3.org/1999/xlink" width="108" height="108" viewBox="0 0 108 108"><defs><style>.a{fill:#fff;}.b{fill:#bcbec0;}.c{fill:#ec058c;}.d{filter:url(#a);}</style><filter id="a" x="0" y="0" width="108" height="108" filterUnits="userSpaceOnUse"><feOffset dy="3" input="SourceAlpha"/><feGaussianBlur stdDeviation="3" result="b"/><feFlood flood-opacity="0.161"/><feComposite operator="in" in2="b"/><feComposite in="SourceGraphic"/></filter></defs><g transform="translate(4129.597 -3884.797)"><g class="d" transform="matrix(1, 0, 0, 1, -4129.6, 3884.8)"><circle class="a" cx="45" cy="45" r="45" transform="translate(9 6)"/></g><path class="b" d="M-4075.517,3969.465a33.563,33.563,0,0,1-33.563-33.56v0a33.562,33.562,0,0,1,33.562-33.562h0a33.561,33.561,0,0,1,33.563,33.56v0A33.6,33.6,0,0,1-4075.517,3969.465Zm0-65.292a31.736,31.736,0,0,0-31.736,31.728,31.735,31.735,0,0,0,31.726,31.736,31.736,31.736,0,0,0,31.737-31.728h0A31.765,31.765,0,0,0-4075.517,3904.173Z"/><path class="b" d="M-4075.519,3963.423a27.524,27.524,0,0,1-27.523-27.523,27.524,27.524,0,0,1,27.523-27.524A27.524,27.524,0,0,1-4048,3935.9h0A27.547,27.547,0,0,1-4075.519,3963.423Zm0-53.21a25.687,25.687,0,0,0-25.687,25.686,25.688,25.688,0,0,0,25.686,25.689h0a25.686,25.686,0,0,0,25.687-25.687v0h0A25.716,25.716,0,0,0-4075.519,3910.213Z"/><path class="b" d="M-4039.368,3936.818h-12.907a.917.917,0,0,1-.893-.94v0a.918.918,0,0,1,.893-.893h12.91a.918.918,0,0,1,.892.943A.918.918,0,0,1-4039.368,3936.818Z"/><path class="b" d="M-4098.92,3936.818h-12.908a.918.918,0,0,1-.893-.94v0a.921.921,0,0,1,.893-.893h12.908a.92.92,0,0,1,.893.943A.918.918,0,0,1-4098.92,3936.818Z"/><path class="b" d="M-4075.517,3912.9a.872.872,0,0,1-.871-.872h0v-12.276a.871.871,0,0,1,.871-.871h0a.872.872,0,0,1,.872.871h0v12.268a.872.872,0,0,1-.872.872h0Z"/><path class="b" d="M-4075.517,3972.714a.871.871,0,0,1-.871-.872h0v-12.267a.871.871,0,0,1,.871-.872h0a.872.872,0,0,1,.872.872h0v12.267a.872.872,0,0,1-.872.872Z"/><path class="c" d="M-4059.36,3952.355v-4.372a8.738,8.738,0,0,0-8.738-8.738H-4083.4a8.744,8.744,0,0,0-8.738,8.738v4.372Z"/><path class="c" d="M-4068.1,3925.035a7.651,7.651,0,0,0-7.651-7.649,7.65,7.65,0,0,0-7.648,7.653,7.649,7.649,0,0,0,7.648,7.649h0A7.651,7.651,0,0,0-4068.1,3925.035Z"/></g></svg>